<svg width="150" height="100" viewBox="0 0 150 100" xmlns="http://www.w3.org/2000/svg">
  <defs>
    <!-- Orange gradient -->
    <linearGradient id="orangeGrad" x1="0%" y1="0%" x2="100%" y2="100%">
      <stop offset="0%" style="stop-color:#ff8c42"/>
      <stop offset="50%" style="stop-color:#ff6b35"/>
      <stop offset="100%" style="stop-color:#e85a2b"/>
    </linearGradient>

    <!-- Glow effect -->
    <filter id="softGlow">
      <feGaussianBlur stdDeviation="2" result="coloredBlur"/>
      <feMerge>
        <feMergeNode in="coloredBlur"/>
        <feMergeNode in="SourceGraphic"/>
      </feMerge>
    </filter>
  </defs>

  <!-- Main ML letters with tech styling -->
  <g fill="url(#orangeGrad)" filter="url(#softGlow)">
    <!-- M - Bold and modern -->
    <path d="M 30 25 L 30 75 L 40 75 L 40 45 L 52 68 L 58 68 L 70 45 L 70 75 L 80 75 L 80 25 L 68 25 L 55 58 L 42 25 Z"/>

    <!-- L - Bold with modern cut -->
    <path d="M 90 25 L 90 75 L 130 75 L 130 65 L 100 65 L 100 25 Z"/>
  </g>

  <!-- Code brackets around ML -->
  <g stroke="#ff6b35" stroke-width="3" fill="none">
    <path d="M 22 35 L 18 35 L 18 65 L 22 65"/>
    <path d="M 138 35 L 142 35 L 142 65 L 138 65"/>
  </g>
</svg>
