<svg width="32" height="32" viewBox="0 0 32 32" xmlns="http://www.w3.org/2000/svg">
  <defs>
    <!-- Orange gradient optimized for small size -->
    <linearGradient id="faviconOrange" x1="0%" y1="0%" x2="100%" y2="100%">
      <stop offset="0%" style="stop-color:#ff8c42"/>
      <stop offset="100%" style="stop-color:#e85a2b"/>
    </linearGradient>
  </defs>

  <!-- Simplified ML letters for favicon -->
  <g fill="url(#faviconOrange)">
    <!-- M - Extra bold for small size -->
    <path d="M 8 6 L 8 26 L 11 26 L 11 12 L 14 20 L 16 20 L 19 12 L 19 26 L 22 26 L 22 6 L 18 6 L 15 18 L 12 6 Z"/>

    <!-- L - Extra bold -->
    <path d="M 24 6 L 24 26 L 32 26 L 32 23 L 27 23 L 27 6 Z"/>
  </g>

  <!-- Code brackets - thicker for visibility -->
  <g stroke="#ff6b35" stroke-width="2" fill="none">
    <path d="M 5 10 L 3 10 L 3 22 L 5 22"/>
    <path d="M 27 10 L 29 10 L 29 22 L 27 22"/>
  </g>
</svg>
